<?xml version="1.0" encoding="utf-8"?>
<!-- Generator: Adobe Illustrator 19.0.0, SVG Export Plug-In . SVG Version: 6.00 Build 0)  -->
<svg version="1.1" id="Camada_1" xmlns="http://www.w3.org/2000/svg" xmlns:xlink="http://www.w3.org/1999/xlink" x="0px" y="0px"
	 viewBox="0 0 200 55" style="enable-background:new 0 0 200 55;" xml:space="preserve">
<style type="text/css">
	.st0{fill:#004588;}
	.st1{fill:#E3001B;}
</style>
<g id="XMLID_8_">
	<path id="XMLID_45_" class="st0" d="M31.5,31.9c0,5.2-1.3,9.3-4,12.4c-2.7,3-6.2,4.5-10.6,4.5c-4.6,0-8.2-1.5-10.9-4.5
		c-2.7-3-4.1-7.2-4.1-12.4V12.6h10.3v19.3c0,2.1,0.4,3.7,1.3,4.9c0.8,1.1,2,1.7,3.4,1.7c1.3,0,2.3-0.6,3.1-1.7
		c0.8-1.1,1.2-2.7,1.2-4.9V12.6h10.3V31.9z"/>
	<path id="XMLID_49_" class="st0" d="M58.2,23.3c1.6,1.9,2.3,4.6,2.3,8V48h-10V33.7c0-1-0.2-1.8-0.7-2.4s-1.1-0.9-1.9-0.9
		c-0.9,0-1.6,0.4-2.1,1.1c-0.5,0.7-0.8,1.7-0.8,2.9V48H35V21.1h10v2.9c1.9-2.5,4.2-3.7,6.9-3.7C54.5,20.4,56.6,21.3,58.2,23.3z"/>
	<path id="XMLID_51_" class="st0" d="M73.3,9.1c1,1.2,1.6,2.6,1.6,4.3c0,1.7-0.5,3.2-1.6,4.3c-1,1.1-2.3,1.7-3.9,1.7
		s-2.9-0.6-3.9-1.7c-1-1.1-1.5-2.6-1.5-4.3c0-1.7,0.5-3.1,1.5-4.3c1-1.2,2.3-1.8,3.9-1.8S72.2,7.9,73.3,9.1z M64.4,48V21.1h10V48
		H64.4z"/>
</g>
<g id="XMLID_3_">
	<path id="XMLID_91_" class="st1" d="M194.6,36.6c1.1,1.4,1.6,2.9,1.4,4.7c-0.1,1.9-0.8,3.4-2,4.6c-1.2,1.2-2.7,1.7-4.5,1.6
		c-1.8-0.1-3.2-0.8-4.2-2.1s-1.5-2.9-1.4-4.8c0.1-1.8,0.8-3.3,2-4.5c1.2-1.2,2.7-1.8,4.4-1.7C192.1,34.5,193.5,35.2,194.6,36.6z
		 M198,9.7l-2.5,23L184.8,32l0.4-23.1l0.1-1.8l12.7,0.8L198,9.7z"/>
</g>
<g id="XMLID_4_">
	<path id="XMLID_87_" class="st1" d="M101.2,27.2c2-0.3,3.8,0.2,5.3,1.2s2.4,3,2.8,5.8c0.4,3-0.3,5.6-2,7.6
		c-1.7,2.1-4.2,3.3-7.4,3.7l-17.6,2.2l-4.4-35.1l17.6-2.2c2.9-0.4,5.4,0.2,7.4,1.7c2,1.5,3.2,3.6,3.5,6.3c0.3,2.6-0.1,4.6-1.2,6
		c-1.1,1.5-2.5,2.3-4,2.5L101.2,27.2z M89.8,25.5l4.3-0.5c0.9-0.1,1.5-0.5,2-1s0.7-1.3,0.6-2.1c-0.1-0.8-0.5-1.5-1-1.9
		c-0.6-0.4-1.3-0.6-2.2-0.5l-4.3,0.5L89.8,25.5z M96.1,37.2c0.9-0.1,1.6-0.5,2-1.1c0.5-0.6,0.6-1.4,0.5-2.4c-0.1-0.8-0.4-1.4-1-1.8
		s-1.3-0.6-2.2-0.5L90.6,32l0.7,5.8L96.1,37.2z"/>
</g>
<g id="XMLID_5_">
	<path id="XMLID_85_" class="st1" d="M121.3,36.8c0,0.5,0.1,1,0.3,1.3c0.2,0.3,0.6,0.5,1,0.5c0.3,0,1.1-0.1,2.3-0.5l0.9,8
		c-0.8,0.4-1.4,0.8-1.7,0.9c-0.3,0.2-1,0.4-1.9,0.6c-0.9,0.2-1.9,0.3-2.9,0.2c-2.6-0.1-4.7-1.2-6.2-3.2c-1.5-2-2.1-4.5-2-7.5
		L113.1,6l10,0.6L121.3,36.8z"/>
</g>
<g id="XMLID_6_">
	<path id="XMLID_56_" class="st1" d="M149.7,22.2c1.9,2.1,2.8,5.1,2.6,8.7l-0.9,16l-9.7-0.6l0.1-1.7c-1.9,1.6-4.2,2.3-6.9,2.1
		c-2.5-0.1-4.5-1.1-6-2.7c-1.4-1.7-2.1-3.9-1.9-6.5c0.2-2.7,1.2-4.8,3.2-6.3c1.9-1.4,4.6-2,8.1-1.8l4.4,0.3l0-0.8
		c0-0.7-0.1-1.2-0.5-1.6c-0.3-0.4-0.8-0.7-1.4-0.7c-1.2-0.1-1.9,0.6-2.2,2.1l-9.3-2.8c1.6-5.2,5.6-7.6,11.9-7.3
		C145,18.9,147.8,20,149.7,22.2z M141.3,38.5c0.5-0.4,0.8-1.2,0.9-2.1l0.1-1.1l-1.8-0.1c-0.8,0-1.4,0.1-1.9,0.5s-0.7,0.9-0.8,1.5
		c0,0.6,0.1,1.1,0.5,1.4c0.3,0.4,0.8,0.5,1.3,0.6C140.2,39.2,140.8,39,141.3,38.5z"/>
</g>
<g id="XMLID_7_">
	<path id="XMLID_54_" class="st1" d="M176.7,20.4c1.8,1.7,2.9,4.3,3.3,7.6l2.1,16.6l-9.9,1.2l-1.8-14.2c-0.1-1-0.5-1.7-1-2.3
		c-0.6-0.5-1.2-0.8-2-0.7c-0.9,0.1-1.5,0.6-1.9,1.4c-0.4,0.8-0.6,1.8-0.4,3l1.7,13.5l-9.9,1.2l-5.1-40.4l9.9-1.2l2.1,16.6
		c1.6-2.7,3.7-4.2,6.5-4.5C172.7,17.9,174.9,18.6,176.7,20.4z"/>
</g>
</svg>
